<?xml version="1.0" standalone="no"?>
<!DOCTYPE svg PUBLIC "-//W3C//DTD SVG 20010904//EN"
 "http://www.w3.org/TR/2001/REC-SVG-20010904/DTD/svg10.dtd">
<svg version="1.0" xmlns="http://www.w3.org/2000/svg"
 width="468.000000pt" height="465.000000pt" viewBox="0 0 468.000000 465.000000"
 preserveAspectRatio="xMidYMid meet">

<g transform="translate(0.000000,465.000000) scale(0.100000,-0.100000)"
fill="#000000" stroke="none">
<path d="M2145 4389 c-486 -47 -917 -251 -1264 -599 -323 -323 -520 -717 -585
-1169 -21 -147 -22 -419 -1 -570 62 -444 260 -843 578 -1164 177 -178 330
-290 544 -396 293 -146 585 -215 913 -215 282 -1 514 43 773 146 514 203 941
628 1147 1143 35 87 80 222 80 243 0 9 -44 12 -188 12 l-187 0 -24 -67 c-113
-319 -356 -629 -647 -824 -307 -206 -643 -300 -1018 -286 -438 16 -820 187
-1136 507 -689 696 -644 1817 100 2468 216 189 482 320 780 383 90 20 136 23
320 23 185 1 231 -2 326 -21 459 -94 858 -363 1108 -750 57 -88 111 -196 156
-308 l36 -90 187 -3 c146 -2 187 0 187 10 0 20 -45 156 -79 241 -123 306 -313
570 -578 802 -399 350 -990 537 -1528 484z"/>
<path d="M880 2335 l0 -456 258 3 257 3 75 36 c91 44 146 90 195 165 98 147
101 333 9 486 -46 75 -112 133 -204 177 l-75 36 -257 3 -258 3 0 -456z m451
223 c152 -45 210 -247 107 -372 -51 -62 -114 -86 -230 -86 l-98 0 0 235 0 235
91 0 c51 0 109 -5 130 -12z"/>
<path d="M1860 2335 l0 -455 120 0 120 0 2 232 3 232 98 -161 c95 -157 112
-178 134 -165 6 4 52 74 102 157 50 82 96 154 101 159 7 7 10 -67 10 -222 l0
-232 115 0 115 0 0 455 0 456 -117 -3 -118 -3 -88 -145 c-48 -80 -98 -163
-111 -184 l-23 -39 -110 184 -110 184 -122 3 -121 3 0 -456z"/>
<path d="M2930 2335 l0 -455 233 0 c263 0 313 8 407 65 118 72 202 197 221
330 25 179 -67 363 -229 455 -90 52 -142 60 -399 60 l-233 0 0 -455z m453 224
c48 -13 112 -70 139 -123 45 -87 19 -207 -60 -278 -51 -46 -93 -58 -204 -58
l-88 0 0 235 0 235 88 0 c48 0 104 -5 125 -11z"/>
<path d="M4007 2653 c-3 -5 -1 -35 4 -68 5 -33 11 -81 14 -107 l6 -48 186 0
186 0 -7 87 c-4 48 -10 100 -13 115 l-5 28 -184 0 c-100 0 -185 -3 -187 -7z"/>
<path d="M4026 2198 c-3 -24 -8 -65 -11 -93 -3 -27 -8 -58 -11 -67 -5 -17 8
-18 184 -18 l190 0 6 30 c3 17 9 66 12 110 l7 80 -186 0 -186 0 -5 -42z"/>
</g>
</svg>
