<?xml version="1.0" standalone="no"?>
<!DOCTYPE svg PUBLIC "-//W3C//DTD SVG 20010904//EN"
 "http://www.w3.org/TR/2001/REC-SVG-20010904/DTD/svg10.dtd">
<svg version="1.0" xmlns="http://www.w3.org/2000/svg"
 width="466.000000pt" height="463.000000pt" viewBox="0 0 466.000000 463.000000"
 preserveAspectRatio="xMidYMid meet">

<g transform="translate(0.000000,463.000000) scale(0.100000,-0.100000)"
fill="#000000" stroke="none">
<path d="M2170 4393 c-188 -14 -442 -75 -623 -149 -263 -107 -472 -249 -683
-461 -327 -329 -527 -741 -584 -1207 -16 -129 -13 -392 5 -525 63 -446 261
-845 580 -1166 177 -178 330 -288 542 -394 475 -237 1004 -281 1518 -129 588
174 1080 625 1315 1203 34 84 80 226 80 248 0 4 -84 7 -188 7 l-187 0 -24 -67
c-113 -319 -356 -629 -647 -824 -307 -206 -643 -300 -1018 -286 -349 13 -652
121 -946 336 -105 77 -282 259 -362 371 -510 716 -393 1686 272 2268 216 189
482 320 780 383 90 20 136 23 320 23 185 1 230 -2 327 -22 581 -117 1041 -503
1263 -1057 l36 -90 187 -3 c146 -2 187 0 187 10 0 20 -45 156 -79 241 -123
306 -313 570 -578 802 -389 341 -961 528 -1493 488z"/>
<path d="M870 2334 l0 -456 258 4 257 3 75 36 c91 44 146 90 195 165 148 223
68 531 -170 652 -91 46 -134 52 -382 52 l-233 0 0 -456z m451 224 c52 -15 117
-73 140 -122 22 -49 25 -143 6 -189 -22 -52 -68 -98 -122 -123 -42 -20 -66
-24 -147 -24 l-98 0 0 235 0 235 91 0 c51 0 109 -5 130 -12z"/>
<path d="M1850 2335 l0 -455 120 0 120 0 2 233 3 232 97 -161 c54 -89 105
-164 113 -167 21 -9 33 7 129 167 47 80 91 148 96 151 6 4 10 -76 10 -224 l0
-231 115 0 115 0 0 455 0 456 -117 -3 -118 -3 -88 -145 c-48 -80 -98 -163
-111 -184 l-23 -39 -110 184 -110 184 -122 3 -121 3 0 -456z"/>
<path d="M2920 2335 l0 -455 233 0 c263 0 313 8 407 65 299 182 296 612 -6
785 -91 52 -148 60 -403 60 l-231 0 0 -455z m468 219 c87 -36 146 -124 145
-219 -1 -74 -25 -126 -82 -178 -50 -45 -93 -57 -203 -57 l-88 0 0 235 0 235
95 0 c64 0 108 -5 133 -16z"/>
<path d="M3997 2652 c-3 -4 -1 -30 3 -57 5 -28 11 -76 15 -107 l6 -58 186 0
186 0 -6 75 c-4 41 -10 93 -13 115 l-7 40 -183 0 c-100 0 -185 -3 -187 -8z"/>
<path d="M4016 2198 c-3 -24 -8 -65 -11 -93 -3 -27 -8 -58 -11 -67 -5 -17 8
-18 184 -18 l190 0 6 33 c3 17 8 67 12 110 l7 77 -186 0 -186 0 -5 -42z"/>
</g>
</svg>
