<svg xmlns="http://www.w3.org/2000/svg" viewBox="0 0 72.51 82"><defs><style>.a{fill:#b99768;}</style></defs><title>logo</title><path class="a" d="M14.36,41.5c0,14.76,9.93,26.77,22.14,26.77s22.13-12,22.13-26.77S48.7,14.73,36.5,14.73,14.36,26.74,14.36,41.5Zm1,0c0-14.2,9.48-25.76,21.12-25.76S57.62,27.3,57.62,41.5,48.15,67.26,36.5,67.26,15.38,55.7,15.38,41.5Z" transform="translate(-0.25 -0.5)"/><path class="a" d="M.25,41.5c0,22.61,16.26,41,36.26,41s36.25-18.39,36.25-41S56.49.5,36.5.5.25,18.89.25,41.5Zm1,0c0-22.06,15.82-40,35.26-40s35.26,17.95,35.26,40-15.82,40-35.26,40S1.24,63.56,1.24,41.5Z" transform="translate(-0.25 -0.5)"/><path class="a" d="M20.79,72.8c-1,1.09.16,1.56-.14,1.9-.1.11-.16,0-.27-.06-.28-.25-.74-.73-1.08-1s-.66-.54-1.08-.92c-.12-.11-.14-.19-.08-.25.27-.3.67.48,1.43-.35L21,70.53c.33-.36.44-.43.07-.77l-2.23-2c-.38-.35-.49-.29-.83.09l-1.23,1.35c-1,1.07.35,1.7.07,2,0,.05-.09.14-.36-.11s-.59-.6-1.19-1.14c-.35-.32-.73-.6-1.15-1-.1-.09-.17-.19-.07-.3.31-.35.74.61,1.71-.46l3.49-3.84c.86-.94-.43-1.42-.14-1.75.12-.13.38.09.53.23s.47.49.91.89.86.73,1.11,1,.15.22.07.3c-.24.27-.66-.57-1.36.2l-1.24,1.36c-.21.23-.28.38-.1.54l2.48,2.26c.24.22.47.06.64-.13L23.27,68c.86-.94-.34-1.47-.11-1.72s.2-.07.32,0c.34.31.53.54,1,1s.77.64,1.13,1c.14.13.15.19.08.26-.3.33-.56-.59-1.33.25Z" transform="translate(-0.25 -0.5)"/><path class="a" d="M30,69.65a3.69,3.69,0,0,1,2.11,5.11c-.62,1.51-2.33,3.89-5.66,2.54a3.65,3.65,0,0,1-2-5.07C25.42,69.87,27.54,68.66,30,69.65ZM27,77c1.81.7,3-.51,3.71-2.3,1-2.38.2-4.15-1.15-4.67-1.78-.69-2.91.59-3.54,2.15S25.1,76.23,27,77Z" transform="translate(-0.25 -0.5)"/><path class="a" d="M36.52,71.95c0-.56-.13-.61-.59-.6l-.95,0c-1.27,0-.89,1.55-1.4,1.57-.24,0-.18-.25-.16-.4L33.56,71c0-.12,0-.28.17-.28,1.05,0,1.81,0,3.46-.07s2.4-.13,3.45-.16c.17,0,.18.15.19.27L41,71.83c0,.14.17.59-.13.6-.45,0-.13-1.29-1.43-1.2l-1,0c-.46,0-.57.08-.56.63l.17,5.25c0,1.43,1.48,1,1.49,1.37s-.22.25-.55.26-.83,0-1.58,0-1.13.08-1.58.1c-.2,0-.4,0-.4-.23,0-.46,1.28.06,1.24-1.32Z" transform="translate(-0.25 -0.5)"/><path class="a" d="M9.44,41.49c0,.19,0,.43.78.71a3.3,3.3,0,0,0,.89.26c.82,0,.68-1.19,1-1.18s.15.35.14.59-.07.69-.08,1,0,.66,0,1c0,.16,0,.33-.14.33s-.18-.58-.81-.88L4.42,40.11C4.24,40,4,40,4,39.82s0-.12.37-.26l7.08-2.79c.82-.33.4-1,.77-.94.19,0,.17.11.16.41s-.07.7-.09,1.44c0,.49,0,.91,0,1.23s0,.35-.15.34c-.33,0-.18-.8-.88-.82a2,2,0,0,0-.77.18c-.9.34-1,.39-1,.68Zm-.56-1.88c0-.2,0-.36-.09-.36a1,1,0,0,0-.43.11l-2.09.85c-.09.07-.09,0-.1.09s0,.07.13.13l2,.93a1.08,1.08,0,0,0,.42.14c.11,0,.11-.15.11-.35Z" transform="translate(-0.25 -0.5)"/><path class="a" d="M21.48,14.6c-.16.1-.33.27-.13,1a3.38,3.38,0,0,0,.31.88c.45.68,1.36-.14,1.53.12s-.2.32-.4.45-.6.34-.9.54-.53.4-.79.58-.27.2-.35.08.37-.48.25-1.16l-1.3-7.42c0-.2-.11-.41,0-.49s.11,0,.43.16l6.38,4.14c.75.48,1-.23,1.21.08s0,.2-.24.37-.61.35-1.23.76c-.41.27-.73.54-1,.72s-.28.21-.36.08.55-.61.16-1.19a2,2,0,0,0-.59-.52c-.8-.54-.91-.6-1.15-.44Zm1.2-1.54c.17-.11.31-.19.24-.28a1.09,1.09,0,0,0-.34-.28l-1.91-1.21c-.11,0-.08-.06-.13,0s-.05,0,0,.18l.4,2.16a1,1,0,0,0,.13.42c.06.1.19,0,.35-.11Z" transform="translate(-0.25 -0.5)"/><path class="a" d="M47.2,12.06c-.16-.1-.38-.19-1,.32a3.33,3.33,0,0,0-.67.64c-.43.7.69,1.18.53,1.44s-.38,0-.58-.17-.56-.4-.87-.59-.58-.31-.86-.48-.3-.16-.22-.28.59.14,1.16-.26L50.9,8.4c.16-.11.32-.27.45-.19s.09.08,0,.45l-1.12,7.53c-.12.88.62.82.43,1.14-.1.17-.18.09-.43-.07s-.57-.41-1.2-.8c-.42-.26-.79-.44-1.07-.61s-.3-.16-.22-.3.78.24,1.15-.35a2,2,0,0,0,.23-.76c.15-1,.17-1.08-.08-1.23Zm1.9.45c.17.11.3.2.36.1a1.07,1.07,0,0,0,.12-.43l.31-2.24c0-.11,0-.1,0-.13s-.06,0-.18.05l-1.79,1.26a1.06,1.06,0,0,0-.33.3c-.06.1.08.17.25.28Z" transform="translate(-0.25 -0.5)"/><path class="a" d="M58.89,23.52c-.09-.17-.24-.36-1-.23a3.29,3.29,0,0,0-.91.22c-.73.38,0,1.37-.27,1.51s-.3-.23-.41-.44-.28-.63-.45-.95-.35-.56-.5-.85-.17-.29,0-.36.44.41,1.14.36l7.51-.55c.2,0,.41-.07.48.06s0,.12-.2.41l-4.75,5.94c-.55.7.13,1-.2,1.2-.17.09-.2,0-.34-.28s-.29-.64-.64-1.3c-.23-.44-.46-.78-.62-1.06s-.18-.3,0-.37c.29-.16.55.61,1.17.28a2,2,0,0,0,.58-.54c.61-.74.69-.85.55-1.1Zm1.41,1.35c.09.18.16.32.26.27a1.09,1.09,0,0,0,.32-.31l1.39-1.78c.05-.1.07-.07,0-.12s0-.05-.18,0l-2.19.18a1.14,1.14,0,0,0-.43.09c-.1.05,0,.19.08.36Z" transform="translate(-0.25 -0.5)"/><path class="a" d="M11.28,32.43c.68.2,1.06.36,1.29-.41.79-2.66-.69-2.93-.56-3.34,0,0,.07-.11.28,0a1.76,1.76,0,0,1,1.3,2c-.48,1.63-.72,2.26-.88,2.8-.1.33-.19.8-.36,1.39,0,.14-.12.19-.18.17-.5-.15.33-.79-1-1.19L6,32.28c-.93-.28-1,1-1.38.91-.1,0-.15-.17-.08-.4.13-.43.36-1,.48-1.44.27-.91.27-1.05.32-1.22s.09-.28.23-.24c.42.12-.22.76.62,1Z" transform="translate(-0.25 -0.5)"/><path class="a" d="M53.49,18.27c-.55.45-.89.68-.38,1.3,1.76,2.14,2.81,1.07,3.09,1.4,0,0,0,.12-.12.25a1.76,1.76,0,0,1-2.41-.05c-1.08-1.31-1.47-1.86-1.83-2.29-.22-.27-.56-.6-.94-1.08-.09-.11-.09-.2,0-.24.4-.33.47.71,1.54-.17L56.57,14c.75-.62-.29-1.4,0-1.65.08-.06.23,0,.38.15.28.35.66.88.93,1.2.6.73.72.81.84.94s.18.23.07.32c-.33.27-.51-.61-1.18-.06Z" transform="translate(-0.25 -0.5)"/><path class="a" d="M15.37,26.8c.21.24.25.32.19.43s-.2.15-.72.12l-7.18-.46a1,1,0,0,0-1,.42s-.15.12-.22.09c-.24-.12,0-.39.07-.54.16-.33.37-.65.54-1,.32-.64.42-1,.5-1.11.16-.32.17-.38.35-.29s-.17.66.25.88a4.87,4.87,0,0,0,1.6.32l3.94.33c.09,0,.25,0,.28,0s-.09-.17-.15-.24l-2.43-2.91a3.31,3.31,0,0,0-1-.92c-1-.48-1.09.72-1.44.54-.19-.1,0-.37,0-.49.14-.29.32-.55.47-.84s.24-.58.38-.87.14-.37.32-.28,0,.5.45,1.07Z" transform="translate(-0.25 -0.5)"/><path class="a" d="M14.14,18.6c.38.31.44.37.74,0l.45-.54c.62-.74-.17-1.44,0-1.61s.11-.17.36,0l1.61,1.24c.12.09.48.3.31.5s-1-.74-1.7.15l-.53.63c-.33.4-.19.45.31.87l1.12.94c.54.45.83.75,1.34.13,1.78-2.13.53-3,.8-3.29,0,0,.1-.07.27.07a1.76,1.76,0,0,1,.39,2.38c-1.09,1.3-1.56,1.79-1.91,2.22-.22.27-.49.66-.88,1.13-.09.11-.18.13-.23.08-.4-.34.61-.59-.45-1.49L12,18.62c-.79-.66-1.32.55-1.67.26a.21.21,0,0,1,0-.31c.29-.35.84-.94,1.94-2.26.51-.61,1-1.23,1.6-2a.21.21,0,0,1,.31,0l.9.69c.12.09.45.29.28.48-.34.4-.8-1.12-2.19.54-.87,1-.89,1.08-.28,1.59Z" transform="translate(-0.25 -0.5)"/><path class="a" d="M66,39.42c-.49,0-.57,0-.57.48v.7c0,1,1,1,1,1.22s0,.2-.29.21l-2,.07c-.15,0-.56.08-.56-.19s1.21,0,1.21-1.21v-.83c0-.51-.13-.47-.8-.47H62.55c-.71,0-1.12,0-1.12.76,0,2.77,1.49,2.62,1.49,3,0,0,0,.12-.25.12a1.76,1.76,0,0,1-1.82-1.58c0-1.7,0-2.37,0-2.93,0-.35,0-.82,0-1.43,0-.15.05-.21.12-.21.53,0-.09.85,1.3.85h5.34c1,0,.66-1.26,1.12-1.26.1,0,.19.09.19.25,0,.46,0,1.26,0,3,0,.79,0,1.57,0,2.55a.22.22,0,0,1-.22.22l-1.13,0c-.15,0-.53.07-.53-.19,0-.53,1.33.35,1.34-1.81,0-1.35,0-1.4-.8-1.4Z" transform="translate(-0.25 -0.5)"/><path class="a" d="M27.62,6.78c-.29-1.25-1.38-.56-1.47-1,0-.11.07-.19.2-.23.5-.11.6-.09,1.28-.25S29.09,5,29.82,4.8c2.39-.55,3,1,3.08,1.49a1.75,1.75,0,0,1-.31,1.53c-.26.33-.55.5-.53.61s1.31,1.47,2.42,2.69a.42.42,0,0,0,.43.09c.11,0,.2-.12.31-.14a.16.16,0,0,1,.2.12c.08.34-.59.75-1,.85-.86.2-1.37-.42-1.86-1L31.23,9.5a.91.91,0,0,0-1.13-.36c-.58.13-.49.2-.41.58l.44,1.92c.27,1.19,1.25.49,1.34.89,0,.1,0,.19-.3.24s-.49.06-.95.17-1.12.3-1.67.43c-.12,0-.34.11-.39-.11s.89-.19.56-1.59Zm1.8,1.69c.06.28.47.19.8.11,1.65-.38,1.58-1,1.43-1.67a1.75,1.75,0,0,0-2.15-1.52c-.4.09-.74.17-.59.84Z" transform="translate(-0.25 -0.5)"/><path class="a" d="M41.82,10.91c-.33,1.39.88,1.22.78,1.61,0,.19-.15.14-.3.11-.76-.18-1.23-.33-1.47-.39-.44-.1-1.29-.25-1.35-.27s-.23,0-.19-.22.89.13,1.22-1.26L41.65,5.6c.27-1.18-1-1-.87-1.4,0-.07.09-.2.35-.14.08,0,.67.2,1.5.39.15,0,.93.18,1.71.35C45.73,5.11,47,6,46.58,7.6a2.23,2.23,0,0,1-2.83,1.69c-1.07-.25-1.06-.54-1.05-.58s.07-.21.2-.18a4.39,4.39,0,0,0,.5.19,1.48,1.48,0,0,0,1.79-1.21,1.81,1.81,0,0,0-1.33-2.32c-.49-.11-.72.07-.83.57Z" transform="translate(-0.25 -0.5)"/><path class="a" d="M65.61,35.6c-.11,0-.36.13-.4-.07s.19-.3.32-.4a3.42,3.42,0,0,0,1.53-3.2c-.3-1.63-2-2.24-3.55-2s-3.64,1.59-3.25,3.72c.32,1.72,1.93,2.2,2,2.49,0,.06,0,.16-.1.18-.45.08-2.36-.78-2.8-3.14a3.7,3.7,0,0,1,3.07-4.45c1.88-.35,4.58.33,5.1,3.13a8.31,8.31,0,0,1-.21,2.66c0,.21.41.15.44.31s0,.14,0,.15Z" transform="translate(-0.25 -0.5)"/><path class="a" d="M9,53.55" transform="translate(-0.25 -0.5)"/><polygon class="a" points="12.38 56.56 6.82 56.56 6.74 57.11 12.45 57.11 12.38 56.56"/><path class="a" d="M13.32,53.14a.81.81,0,0,0-.44.68.78.78,0,0,0-.95.51.87.87,0,0,0,.36,1.11s0,.57-.87.57-1-.65-1-.65,1,0,1-.86-.73-.95-.73-.95.24-1.2-.85-1.2S9,53.55,9,53.55s-.73,0-.73.95,1,.86,1,.86a.86.86,0,0,1-.94.66c-.92,0-.93-.57-.93-.57a.87.87,0,0,0,.36-1.11.78.78,0,0,0-.95-.51.81.81,0,0,0-.44-.68c-.47-.32-.89-.21-.68.35L7,56.87h5.66L14,53.49C14.22,52.93,13.79,52.82,13.32,53.14Z" transform="translate(-0.25 -0.5)"/><circle class="a" cx="9.6" cy="51.39" r="0.49"/><path class="a" d="M62.22,53.55" transform="translate(-0.25 -0.5)"/><polygon class="a" points="65.61 56.56 60.05 56.56 59.98 57.11 65.69 57.11 65.61 56.56"/><path class="a" d="M66.56,53.14a.82.82,0,0,0-.44.68.78.78,0,0,0-.95.51.87.87,0,0,0,.36,1.11s0,.57-.87.57-1-.65-1-.65,1,0,1-.86-.73-.95-.73-.95.24-1.2-.85-1.2-.86,1.2-.86,1.2-.73,0-.73.95,1,.86,1,.86a.86.86,0,0,1-.94.66c-.92,0-.93-.57-.93-.57A.88.88,0,0,0,61,54.33a.79.79,0,0,0-1-.51.81.81,0,0,0-.43-.68c-.47-.32-.89-.21-.68.35l1.33,3.38H65.9l1.33-3.38C67.45,52.93,67,52.82,66.56,53.14Z" transform="translate(-0.25 -0.5)"/><circle class="a" cx="62.83" cy="51.39" r="0.49"/><path class="a" d="M45.14,72.14c.18.47.21.54.66.37l.66-.26c.91-.35.55-1.36.76-1.44s.18-.09.3.2l.82,1.9c.07.14.28.5,0,.6s-.49-1.14-1.58-.71l-.78.3c-.48.19-.39.3-.15.93l.53,1.39c.26.67.37,1.08,1.13.79,2.61-1,1.92-2.37,2.31-2.52,0,0,.13,0,.21.19a1.79,1.79,0,0,1-.81,2.31c-1.6.62-2.25.82-2.77,1-.33.12-.75.34-1.33.56-.14.05-.22,0-.25,0-.19-.5.83-.22.32-1.55l-2-5.08c-.38-1-1.43-.17-1.6-.6,0-.1,0-.22.16-.28.43-.17,1.21-.41,2.82-1,.75-.29,1.46-.61,2.38-1a.22.22,0,0,1,.29.12l.46,1.06c.07.14.26.47,0,.57-.49.19-.16-1.4-2.2-.61-1.27.49-1.31.52-1,1.27Z" transform="translate(-0.25 -0.5)"/><path class="a" d="M54,70.83c.44.57.66.93,1.3.44,2.22-1.71,1.16-2.82,1.5-3.08,0,0,.12,0,.26.13A1.79,1.79,0,0,1,57,70.76c-1.36,1-1.93,1.42-2.37,1.76-.28.21-.63.54-1.12.92-.11.09-.2.09-.25,0-.32-.43.74-.45-.13-1.57l-3.35-4.37c-.6-.78-1.42.25-1.67-.08-.06-.08,0-.23.17-.37.36-.27.91-.63,1.24-.9.76-.58.84-.7,1-.82s.24-.17.32-.06c.27.35-.63.5-.09,1.2Z" transform="translate(-0.25 -0.5)"/><path class="a" d="M51.77,51V36.55c0-1.54,1.17-.07,1.17-.07A14.55,14.55,0,0,0,51.63,33a13.82,13.82,0,0,0-2.77-3.2,6.6,6.6,0,0,1,.51,2.39v.52s0,6.75,0,10.86A12.81,12.81,0,0,1,46.95,46a13.92,13.92,0,0,1-2.49,1.5c0-7.71,0-17.05,0-17.9a2.94,2.94,0,0,1,.74-2.12,8.74,8.74,0,0,0-1.72-.73A17.1,17.1,0,0,0,40.72,26c.85.56,1,2.67,1,3.19,0,.05,0,1.21,0,1.21l0,29.44v.89c0,2.68-.91,3.12-.91,3.12A14.31,14.31,0,0,0,44,62.62a11.42,11.42,0,0,0,2.23-1.41c-1.11.22-1.76-1.62-1.76-3.38,0,0,0-.77,0-.77V49.14s1.4-.65,2.34-1.21a15.86,15.86,0,0,0,2.62-2c0,2.88,0,5.51,0,7.19,0,.7,0,1.24,0,1.56a21.85,21.85,0,0,1-.26,3.78,19.45,19.45,0,0,0,2.29-3,23.74,23.74,0,0,0,1.85-3.68C52.24,52.34,51.77,51.57,51.77,51Z" transform="translate(-0.25 -0.5)"/><path class="a" d="M28.08,49.86V59.2c0,1.42-1.64,1.73-1.64,1.73a22.38,22.38,0,0,0,2.45,1.58,19.86,19.86,0,0,0,2.87,1.22,3.94,3.94,0,0,1-1.17-2.48c0-.15,0-.7,0-.7V50.74s-.85-.24-1.19-.36S28.08,49.86,28.08,49.86Z" transform="translate(-0.25 -0.5)"/><path class="a" d="M37.51,62.2V46.48s-.45,0-1.21,0a14.07,14.07,0,0,1-1.54-.12s0,1,0,2.78A19.38,19.38,0,0,1,31,48.43a14.17,14.17,0,0,1-7.21-4.78c0-3.62,0-7,0-8,0-3,.56-4,2.07-5.15A14.63,14.63,0,0,1,30.35,28c2.6-.89,4.43-1,4.43.08V43.34a8.44,8.44,0,0,0,1.42.18,11.51,11.51,0,0,0,1.34,0V27.17c0-1,1.18-1.44,1.18-1.44a10.68,10.68,0,0,0-2.49-.14,23.17,23.17,0,0,0-6.56,1.12c-2.74,1-6.77,3.22-8.62,7.16a11.47,11.47,0,0,0-.81,2.48s.78.05.78.52c0,.26,0,1.1,0,1.1V51.26c0,.73.07,1.42-1,1.36a25,25,0,0,0,1.54,2.88,22.59,22.59,0,0,0,2.85,3.61s-.56-.75-.56-4.17c0-.29,0-4.46,0-9a16.8,16.8,0,0,0,4.78,3.11,19.81,19.81,0,0,0,6.15,1.47c0,3.94,0,11,0,11v.56a2.1,2.1,0,0,1-1.57,2,14.47,14.47,0,0,0,3.06.37,15.83,15.83,0,0,0,2.62-.18A2.22,2.22,0,0,1,37.51,62.2Z" transform="translate(-0.25 -0.5)"/><path class="a" d="M40.9,43.45a9.84,9.84,0,0,1-4.43.94,9.49,9.49,0,0,1-5.9-1.95c0-3.09,0-9,0-13.65,0,0-1,.4-1.4.6S28,30,28,30V46.22s.67.4,1.28.7,1.27.54,1.27.54V44.21A12.71,12.71,0,0,0,40.9,45Z" transform="translate(-0.25 -0.5)"/><path class="a" d="M41.75,43v1.61h0V43Z" transform="translate(-0.25 -0.5)"/><path class="a" d="M48.21,32c0-7.82-4.72-13.48-11.9-13.48A17.19,17.19,0,0,0,26.41,22s1.56.23,1.56.63v3.8s.82-.31,1.3-.48,1.24-.38,1.24-.38c0-1.51,0-2.33,0-2.6,0-1.38,1.77-3.05,5.79-3.05a9,9,0,0,1,7.59,3.93C45.1,25.5,46.34,28,46.34,33a16.39,16.39,0,0,1-1,6.26c0,.1,0,2.54,0,2.54C47,39.83,48.21,36.18,48.21,32Z" transform="translate(-0.25 -0.5)"/></svg>